# xmcd
#
# Track frame offsets:
#	150
#	19970
#	34932
#	53880
#	77362
#	93787
#	112890
#	126210
#	140482
#	156342
#	175205
#	192265
#	210090
#	226385
#	243405
#	262452
#	280250
#	294095
#	310105
#	326452
#	341480
#
# Disc length: 4729
#
# Revision: 1
# Processed by: cddbd v1.5.1PL0 Copyright (c) Steve Scherf et al.
# Submitted via: VisiTrax 2.9.5.180 - For more info visit www.synapsa.com
# Normalized: r0:DSETVAR1
#
DISCID=23127715
DTITLE=Various Artist - CDX 239 May 2000
DYEAR=2000
DGENRE=
TTITLE0=Big House - Buck these Haggard blues
TTITLE1=Neil Young - Buffalo Springfield again
TTITLE2=Dixie Chicks - Cold day in july
TTITLE3=Dixie Chicks - Cold day in july
TTITLE4=Toby Keith - Country comes to town
TTITLE5=Vince Gill - Feels like love
TTITLE6=Anita Cochran - Good Times
TTITLE7=Tracy Lawrence - Lonely
TTITLE8=Hank Willams Jr - Naked woman and beer
TTITLE9=Billy Gilman - One voice
TTITLE10=Nickel Creek - Reasons why
TTITLE11=Charlie Daniels Band - Road dogs
TTITLE12=Montgomery Gentry - Self made man
TTITLE13=Wilkinsons - Shame on me
TTITLE14=Chely Wright - She went out for cigarettes
TTITLE15=Tim McGraw - Some things never changes
TTITLE16=Diamond Rio - Stuff
TTITLE17=Allison Paige - The end of the world
TTITLE18=Alabama - We made love
TTITLE19=Pete Benz - Good luck
TTITLE20=Joseph James - Nice to be with you
EXTD=
EXTT0=
EXTT1=
EXTT2=
EXTT3=
EXTT4=
EXTT5=
EXTT6=
EXTT7=
EXTT8=
EXTT9=
EXTT10=
EXTT11=
EXTT12=
EXTT13=
EXTT14=
EXTT15=
EXTT16=
EXTT17=
EXTT18=
EXTT19=
EXTT20=
PLAYORDER=
